<?xml version="1.0" encoding="UTF-8"?><svg id="Layer_2" xmlns="http://www.w3.org/2000/svg" viewBox="0 0 121.78 125"><defs><style>.cls-1{fill:#000;stroke-width:0px;}</style></defs><g id="Layer_1-2"><path class="cls-1" d="M69.59,121.11c-2.59,2.59-5.93,3.89-10.01,3.89s-7.42-1.3-10.04-3.89c-2.61-2.59-3.92-5.99-3.92-10.18s1.31-7.58,3.92-10.15c2.61-2.58,5.96-3.86,10.04-3.86s7.42,1.29,10.01,3.86c2.59,2.58,3.89,5.96,3.89,10.15s-1.3,7.59-3.89,10.18ZM53.86,120.68c1.48,2.13,3.39,3.2,5.71,3.2s4.22-1.07,5.69-3.2c1.47-2.13,2.2-5.38,2.2-9.75s-.73-7.56-2.2-9.7c-1.47-2.13-3.36-3.2-5.69-3.2s-4.23,1.07-5.71,3.2c-1.49,2.13-2.23,5.36-2.23,9.7s.74,7.62,2.23,9.75Z"/><path class="cls-1" d="M100.76,110.51c.03,3.51.94,6.27,2.71,8.27,1.77,2,4.05,3,6.83,3,4.23,0,7.38-1.9,9.46-5.69l.81.31c-.89,2.57-2.37,4.64-4.43,6.22-2.06,1.58-4.65,2.37-7.76,2.37-3.83,0-7.01-1.25-9.55-3.76-2.54-2.51-3.81-5.79-3.81-9.84,0-4.4,1.25-7.92,3.75-10.55,2.5-2.63,5.74-3.94,9.72-3.94s6.76,1.08,8.91,3.25c2.15,2.17,3.22,5.16,3.22,8.99v1.36h-19.86ZM100.76,109.44h14.39v-.45c0-7.34-2.22-11.01-6.66-11.01-2.18,0-3.99,1.01-5.42,3.04-1.43,2.03-2.2,4.83-2.31,8.41Z"/><polygon class="cls-1" points="41.17 89.63 41.17 121.49 45.63 123.93 45.63 124.35 31.04 124.35 31.04 123.93 35.41 121.49 35.41 90.86 22.36 116.93 21.19 116.93 7.03 91.62 7.03 121.49 11.73 123.93 11.73 124.34 1.16 124.34 1.16 123.93 5.77 121.49 5.77 89.63 1.16 87.21 1.16 86.77 15.76 86.77 15.76 87.21 12.09 89.2 24.04 110.62 34.84 89.2 31.04 87.22 31.04 86.77 45.63 86.77 45.63 87.22 41.17 89.63"/><path class="cls-1" d="M82.78,121.49l3.93,2.43v.42h-13.23v-.42l3.93-2.43v-21.32l-3.93-2.16v-.44h8.49l.76,4.87c2.25-3.69,5-5.53,8.25-5.53,1.54,0,2.88.24,4.04.71l-2.75,7.78h-.42l-3.07-6.34c-2.36.47-4.36,2.11-6,4.9v17.53Z"/><polygon class="cls-1" points="40.01 2.85 40.01 34.72 44.47 37.15 44.47 37.57 29.87 37.57 29.87 37.15 34.25 34.72 34.25 18.84 10.14 18.84 10.14 34.72 14.59 37.15 14.59 37.57 0 37.57 0 37.15 4.37 34.72 4.37 2.85 0 .44 0 0 14.59 0 14.59 .44 10.14 2.85 10.14 17.66 34.25 17.66 34.25 2.85 29.87 .44 29.87 0 44.47 0 44.47 .44 40.01 2.85"/><path class="cls-1" d="M50.2,23.74c.03,3.51.94,6.27,2.71,8.27,1.77,2,4.05,3,6.83,3,4.23,0,7.38-1.9,9.46-5.69l.81.31c-.89,2.57-2.37,4.64-4.43,6.22-2.06,1.58-4.65,2.37-7.76,2.37-3.83,0-7.01-1.25-9.55-3.76-2.54-2.51-3.81-5.79-3.81-9.84,0-4.4,1.25-7.92,3.75-10.55,2.5-2.63,5.74-3.94,9.72-3.94s6.76,1.08,8.91,3.25c2.15,2.17,3.22,5.16,3.22,8.99v1.36h-19.86ZM50.2,22.67h14.39v-.45c0-7.34-2.22-11.01-6.66-11.01-2.18,0-3.99,1.01-5.42,3.04-1.43,2.03-2.2,4.83-2.31,8.41Z"/><path class="cls-1" d="M81.06,34.72l3.93,2.43v.42h-13.23v-.42l3.93-2.43V13.4l-3.93-2.16v-.44h8.49l.76,4.87c2.25-3.69,5-5.53,8.25-5.53,1.54,0,2.88.24,4.04.71l-2.75,7.78h-.42l-3.07-6.34c-2.36.47-4.36,2.11-6,4.9v17.53Z"/><path class="cls-1" d="M118.36,13.67c-2.28-2.35-4.99-3.53-8.14-3.53-3.69,0-6.57,1.42-8.67,4.25V0h-9.3v.44l3.93,2.16v34.97h1.4l3.69-2.46c1.94,2.08,4.46,3.12,7.57,3.12,3.48,0,6.5-1.3,9.08-3.89,2.58-2.59,3.86-6.11,3.86-10.55s-1.14-7.78-3.42-10.13ZM113.53,33.25c-1.62,2.03-3.78,3.04-6.47,3.04-2.19,0-4.02-.75-5.5-2.25V15.67c1.64-2.13,3.71-3.2,6.21-3.2s4.49.98,5.97,2.95c1.48,1.97,2.23,4.88,2.23,8.74s-.81,7.06-2.44,9.09Z"/><path class="cls-1" d="M80.02,80.21l-10.96-9.89c.8-2,1.46-4.3,1.98-6.93h0l6.26-4.18v-.35h-11.56v.35l4.05,4.18c-.4,2.08-1.01,4.07-1.82,5.97l-12.58-11.4c-1.71-1.54-2.99-2.94-3.82-4.18-.83-1.24-1.31-2.6-1.44-4.08-.14-1.58.26-2.89,1.19-3.93.93-1.04,2.2-1.56,3.81-1.56.91,0,2.07.27,3.49.8l3.54,8.11h.44l2.84-7.29c-4.08-1.85-7.69-2.78-10.85-2.78s-5.43.73-7.13,2.17c-1.7,1.45-2.44,3.5-2.21,6.14.15,1.7.68,3.25,1.61,4.66.92,1.41,2.26,2.9,4.01,4.48l.45.41c-3.11.53-5.53,1.69-7.26,3.48-1.73,1.79-2.48,4.05-2.24,6.8.27,3.04,1.58,5.48,3.94,7.32,2.36,1.85,5.38,2.77,9.07,2.77,5.18,0,9.11-2.2,11.78-6.59l6.61,5.94h6.8v-.42ZM56.43,79.07c-2.64,0-4.82-.79-6.52-2.38-1.7-1.59-2.66-3.59-2.87-6.01-.37-4.19,1.4-7.14,5.3-8.86l13.28,11.97c-2.54,3.52-5.61,5.28-9.19,5.28Z"/></g></svg>