<?xml version="1.0" encoding="UTF-8"?><svg id="Layer_2" xmlns="http://www.w3.org/2000/svg" viewBox="0 0 65 37.19"><defs><style>.cls-1{fill:#00ab9f;}.cls-1,.cls-2{stroke-width:0px;}.cls-2{fill:#002d5c;}</style></defs><g id="Layer_1-2"><path class="cls-2" d="M65,19.4c0-4.82-3.04-5.43-5.8-5.89-1.99-.33-3.69-.48-3.69-2.26s1.44-2.06,2.99-2.06,3.21.38,4.81.76c.43.1.58-.15.62-.38l.36-2.08c.07-.46-.22-.63-.53-.74-.55-.18-2.99-.86-5.8-.86-4,0-6.97,1.3-6.97,5.89s3.33,5.2,5.75,5.61c2.04.36,3.64.48,3.64,2.34,0,1.7-1.32,2.16-3.11,2.16-2.08,0-4.5-.74-5.05-.86-.34-.1-.65.03-.69.41l-.34,1.98c-.1.56.12.74.41.84.41.15,3.07.96,6.42.96,3.67,0,6.97-1.42,6.97-5.81M48.61,9.19v-2.64c0-.23-.17-.38-.38-.38h-11.4c-.22,0-.43.18-.43.41v17.95c0,.23.22.41.43.41h3.64c.24,0,.43-.18.43-.41v-6.4h6.54c.22,0,.38-.15.38-.38v-2.64c0-.23-.17-.38-.38-.38h-6.54v-5.15h7.33c.22,0,.38-.15.38-.38M31.68,24.55V6.22c0-.2-.12-.41-.38-.38l-3.71.48c-.24.02-.41.15-.41.36v17.87c0,.23.19.38.41.38h3.71c.22,0,.38-.15.38-.38"/><path class="cls-2" d="M2.29.62c.2-.34.68-.62,1.07-.62h4.29c.39,0,.87.28,1.07.62l2.14,3.7c.2.34.2.89,0,1.23l-2.14,3.7c-.2.34-.68.62-1.07.62H3.36c-.39,0-.87-.28-1.07-.62L.15,5.55c-.2-.34-.2-.89,0-1.23L2.29.62Z"/><path class="cls-1" d="M11.91,18.11c.2-.34.68-.62,1.07-.62h4.29c.39,0,.87.28,1.07.62l2.14,3.7c.2.34.2.89,0,1.23l-2.14,3.7c-.2.34-.68.62-1.07.62h-4.29c-.39,0-.87-.28-1.07-.62l-2.14-3.7c-.2-.34-.2-.89,0-1.23l2.14-3.7Z"/><path class="cls-1" d="M11.91,6.73c.2-.34.68-.62,1.07-.62h4.29c.39,0,.87.28,1.07.62l2.14,3.7c.2.34.2.89,0,1.23l-2.14,3.7c-.2.34-.68.62-1.07.62h-4.29c-.39,0-.87-.28-1.07-.62l-2.14-3.7c-.2-.34-.2-.89,0-1.23l2.14-3.7Z"/><path class="cls-1" d="M30.59,32.34h-2.52v1.91h2.28c.07,0,.12.05.12.11v.5c0,.07-.05.12-.12.12h-2.28v1.99c0,.07-.06.12-.13.12h-.65c-.07,0-.13-.05-.13-.12v-5.24c0-.07.06-.12.13-.12h3.3c.07,0,.12.05.12.12v.49c0,.07-.05.12-.12.12Z"/><path class="cls-1" d="M33.02,37.19c-1.61,0-1.81-.91-1.81-2.04s.2-2.05,1.81-2.05,1.8.91,1.8,2.05-.19,2.04-1.8,2.04ZM33.02,33.71c-.9,0-.94.53-.94,1.44s.04,1.43.94,1.43.93-.53.93-1.43-.04-1.44-.93-1.44Z"/><path class="cls-1" d="M37.25,37.19c-1.61,0-1.81-.91-1.81-2.04s.2-2.05,1.81-2.05,1.8.91,1.8,2.05-.19,2.04-1.8,2.04ZM37.25,33.71c-.9,0-.94.53-.94,1.44s.04,1.43.94,1.43.93-.53.93-1.43-.04-1.44-.93-1.44Z"/><path class="cls-1" d="M42.8,37.03c-.29.07-.67.16-1.19.16-1.45,0-1.86-.56-1.86-2.03,0-1.36.36-2.05,1.68-2.05.51,0,.9.1,1.08.14l-.07-.44v-1.04c0-.08.04-.12.11-.13l.6-.12h.03c.06,0,.1.04.1.11v4.83c0,.23-.01.46-.46.58ZM42.43,33.82s-.41-.1-.82-.1c-.7,0-.99.19-.99,1.42,0,1.3.34,1.45,1.02,1.45.43,0,.8-.1.8-.1v-2.66Z"/></g></svg>