<svg id="Layer_2" height="512" viewBox="0 0 32 32" width="512" xmlns="http://www.w3.org/2000/svg" data-name="Layer 2"><path d="m19.23 16a3.23 3.23 0 1 1 -3.23-3.23 3.23495 3.23495 0 0 1 3.23 3.23z"/><path d="m19.77 8.74h-7.54a3.19443 3.19443 0 0 0 -3.19 3.2v8.12a3.19446 3.19446 0 0 0 3.19 3.2h7.54a3.19446 3.19446 0 0 0 3.19-3.2v-8.12a3.19443 3.19443 0 0 0 -3.19-3.2zm-3.77 12.24a4.98 4.98 0 1 1 4.98-4.98 4.99333 4.99333 0 0 1 -4.98 4.98zm4.93-9.15a.75965.75965 0 0 1 -.76-.75995.75122.75122 0 0 1 .76-.75.74273.74273 0 0 1 .75.75.75117.75117 0 0 1 -.75.75995z"/><path d="m16 1a15 15 0 1 0 15 15 15.00543 15.00543 0 0 0 -15-15zm8.7 19.06a4.9357 4.9357 0 0 1 -4.93 4.94h-7.54a4.9357 4.9357 0 0 1 -4.93-4.94v-8.12a4.9357 4.9357 0 0 1 4.93-4.94h7.54a4.9357 4.9357 0 0 1 4.93 4.94z"/></svg>