<svg id="Layer_2" height="512" viewBox="0 0 32 32" width="512" xmlns="http://www.w3.org/2000/svg" data-name="Layer 2"><path d="m16 1a15 15 0 1 0 15 15 15.00543 15.00543 0 0 0 -15-15zm-4.98 23.36a.62968.62968 0 0 1 -.63.64h-2.55a.638.638 0 0 1 -.64-.64v-11a.636.636 0 0 1 .64-.63h2.55a.62742.62742 0 0 1 .63.63zm-1.91-13.2a2.08 2.08 0 1 1 2.08-2.08 2.08477 2.08477 0 0 1 -2.08 2.08zm15.86 12.9a.63594.63594 0 0 1 -.63995.63h-2.44005a.62968.62968 0 0 1 -.64-.63v-6.3a2.07 2.07 0 1 0 -4.14 0v6.3a.62738.62738 0 0 1 -.63.63h-2.55a.62742.62742 0 0 1 -.63-.63v-10.7a.62742.62742 0 0 1 .63-.63h2.52a.62968.62968 0 0 1 .64.63v.94l.49-.57a3.376 3.376 0 0 1 2.57-1.18h.6a4.21226 4.21226 0 0 1 4.22 4.21z"/></svg>