<?xml version="1.0" encoding="UTF-8"?><svg id="Layer_2" xmlns="http://www.w3.org/2000/svg" viewBox="0 0 166.25 115.85"><defs><style>.cls-1{fill:#0a4635;}.cls-1,.cls-2,.cls-3{stroke-width:0px;}.cls-2{fill:#60a512;}.cls-3{fill:#fff;}</style></defs><g id="Layer_1-2"><path class="cls-2" d="M165.04,47.74c7.95-34.25-24.67-55.76-56.64-44.91-16.09,5.46-22.72,13.13-49.48,1.53C33.6-6.61-8.41,5.08,1.48,49.41c8.57,38.4,61.75,54.38,61.75,54.38,0,0-3.39-29.61,35.98-22.13,26.71,5.07,58.76-3.47,65.83-33.92"/><path class="cls-2" d="M105.73,110.28s-13.68-18.84-35.83-4.64c0,0,12.83,19.46,35.83,4.64"/><path class="cls-2" d="M85.59,86.82s-13.23-2.1-16.47,12.69c0,0,13.14,2.7,16.47-12.69"/><path class="cls-3" d="M23.06,47.82c-1.56,0-2.34-1.18-2.34-3.55,0-2.89.07-6.5.22-10.86.14-4.35.56-8.01,1.27-10.98,0,0-3.17-.02-4.44-.11-1.27-.09-2.3-.27-3.08-.53-.78-.26-1.17-.66-1.17-1.21,0-.23.1-.47.29-.7.19-.24.66-.46,1.4-.66.74-.21,1.9-.4,3.47-.57,1.57-.17,7.58-.51,11.74-.51.57,0,1.01.13,1.31.39.3.26.51.55.64.88.13.32.2.6.2.84,0,.49-.18.94-.53,1.35-.35.4-.79.63-1.31.68l-4.44.08c0,1.51-.12,3.15-.35,4.91-.37,2.88-.61,7.19-.74,12.91,0,1.92.03,3.21.08,3.86l.04,1.05-.04.86c-.08.55-.34.99-.78,1.34-.44.35-.92.53-1.44.53"/><path class="cls-3" d="M38.34,45.17c-1.4,0-2.52-.63-3.35-1.89-.83-1.26-1.44-2.99-1.81-5.19-.38-2.2-.56-4.69-.56-7.47,0-1.69.07-3.31.21-4.87.14-1.56.44-2.84.88-3.84.44-1,1.08-1.5,1.91-1.5.41,0,.81.21,1.17.64.36.43.55,1.07.55,1.93l-.04,1.48c-.11,1.51-.16,3.34-.16,5.5,0,4.68.43,8.08,1.29,10.22.6-.88,1.21-2.31,1.83-4.29.94-3.41,1.49-6.84,1.68-10.3.05-1.56.2-2.71.45-3.45.25-.74.88-1.11,1.89-1.11s1.57.37,1.83,1.11c.26.74.39,1.58.39,2.52s-.09,2.2-.25,3.86c-.17,1.66-.45,3.44-.84,5.34-.39,1.9-.9,3.7-1.52,5.4-.62,1.7-1.4,3.11-2.32,4.23-.92,1.12-1.99,1.68-3.22,1.68M36.94,19.9c-.62,0-1.11-.23-1.46-.68-.35-.46-.52-.89-.52-1.31,0-.44.2-.96.6-1.56.4-.6.9-.9,1.5-.9.68,0,1.2.44,1.56,1.33.18.47.27.87.27,1.21,0,.57-.2,1.03-.59,1.39-.39.35-.85.53-1.36.53M42.17,19.82c-.57,0-1.05-.22-1.42-.66-.38-.44-.56-.95-.56-1.52,0-.52.19-1,.58-1.44.39-.44.83-.66,1.33-.66s.92.21,1.37.62c.44.42.66.94.66,1.56-.05.6-.2,1.05-.45,1.37-.25.31-.52.51-.82.6-.3.09-.53.14-.68.14"/><path class="cls-3" d="M64.15,50.54c-.41-.04-1.21-.4-2.4-1.09-1.18-.68-2.48-1.71-3.9-3.1-1.42-1.38-2.75-3.15-3.99-5.28-.06,1.38-.09,2.45-.09,3.22,0,.77-.03,1.41-.08,1.93-.19,1.89-1,2.76-2.42,2.62-.96-.1-1.56-.76-1.8-1.99-.38-1.61-.33-4.83.16-9.66.49-4.81,1.18-9.06,2.08-12.76l-.43.35.08-.03-.12.07c-.58.54-1.05.8-1.41.76-.14.06-.27.09-.4.08-.34-.03-.55-.25-.64-.65-.07-.08-.09-.29-.05-.63.09-.93.54-1.72,1.34-2.37,1.77-1.52,4.28-2.56,7.52-3.12.59-.1,1.09-.12,1.5-.08,1.06.11,1.91.45,2.56,1.04.65.59,1.11,1.28,1.4,2.08.29.8.38,1.61.3,2.44-.14,1.4-.64,2.81-1.51,4.26-.86,1.44-1.84,2.79-2.92,4.06-1.08,1.26-2.04,2.3-2.88,3.1.21.28.46.74.76,1.37,1.41,2.88,3.41,5.43,6.01,7.62l1.62,1.03c.71.41,1.26.8,1.63,1.17.37.36.51.96.42,1.79-.06.57-.33,1.02-.82,1.37-.49.34-1,.49-1.51.43M55.13,30.11c1.3-1.51,2.21-2.77,2.73-3.76.67-1.21,1.03-2.03,1.07-2.44l.04-.35s-.03-.07-.03-.12c0-.05,0-.11-.02-.18-.02-.07-.03-.12-.02-.16,0-.04,0-.07-.03-.1-.02-.03-.03-.05-.03-.06,0-.01-.02-.05-.07-.1.02-.16-.27-.26-.87-.32-.62-.06-1.17-.05-1.65.03l-.07,1.13c-.1.96-.45,3.1-1.05,6.44"/><path class="cls-3" d="M85.95,48.83c-1.12,0-2.66-.65-4.64-1.95-1.98-1.3-3.84-2.68-5.6-4.15-1.75-1.47-3.01-2.57-3.76-3.3.13,2.68.27,4.42.43,5.22.1.52.16,1.04.16,1.56,0,.88-.26,1.5-.78,1.85-.52.35-1,.53-1.44.53-.39,0-.76-.09-1.09-.27-1.19-.62-1.79-4.37-1.79-11.23,0-1.01.07-2.81.2-5.38.28-6.76.86-11.01,1.72-12.75.08-.13.15-.25.22-.37.06-.12.11-.2.14-.23.03-.04.08-.08.15-.14.42-.31.83-.47,1.25-.47.62,0,1.1.31,1.44.92.34.61.51,1.29.51,2.05,0,.65-.1,1.86-.31,3.63-.31,2.65-.56,5.81-.74,9.47,1.45-2.03,2.59-3.87,3.41-5.52.82-1.65,1.46-3.06,1.93-4.23.47-1.17.89-2.07,1.27-2.69.38-.62.84-.94,1.38-.94.29,0,.59.09.9.27.49.31.74.88.74,1.72,0,.03-.12.71-.37,2.05-.25,1.34-.83,3.09-1.73,5.26-.91,2.17-2.33,4.59-4.25,7.27,3.38,2.52,5.89,4.33,7.53,5.42,1.64,1.09,2.91,1.78,3.82,2.07.88.34,1.33,1.04,1.33,2.11,0,.57-.18,1.08-.54,1.54-.37.46-.85.68-1.44.68"/><path class="cls-3" d="M98.78,48.47c-.57,0-1.03-.14-1.38-.41-.35-.27-.68-.84-.99-1.7-.31-.86-.7-2.13-1.17-3.82-.78-2.73-2.29-6.65-4.32-12.61-.1,1.9-.67,9.08-.94,10.38-.27,1.3-.98,1.95-2.13,1.95-1.43,0-2.16-.96-2.18-2.89,0-1.4.17-4.38.51-8.93.42-5.74,1.04-7.08,1.74-9.21,0-1.69.51-2.53,1.52-2.53,1.33,0,2.64,1.58,3.96,4.74,1.31,3.16,3.09,7.66,5.12,14.34,1.07-4.55,1.9-7.78,2.7-10.52.81-2.74,1.53-4.81,2.16-6.2.64-1.39,1.24-2.31,1.79-2.77.56-.45,1.15-.68,1.77-.68.75,0,1.4.27,1.95.8.55.53.99,1.65,1.34,3.35.35,1.7.61,4.22.78,7.54.17,3.33.19,5.22.19,10.89,0,.81-.23,1.42-.68,1.83-.45.42-.98.62-1.58.62-1.17,0-1.87-.53-2.1-1.6-.18-.88-.27-2.27-.27-4.17v-2.53c0-2.7-.08-3.62-.37-7.96-2.08,6.97-3.33,11.78-3.95,15.26-.47,2.44-.91,4.19-1.33,5.25-.42,1.05-1.13,1.58-2.14,1.58"/><path class="cls-3" d="M120.49,46.33c-1.56,0-2.85-.56-3.86-1.7-1.01-1.13-1.77-2.57-2.26-4.31-.49-1.74-.74-3.52-.74-5.34,0-2.52.45-4.97,1.36-7.35.91-2.38,2.08-4.34,3.51-5.89,1.43-1.55,2.91-2.32,4.44-2.32,1.09,0,2.13.45,3.12,1.34.99.9,1.48,2.15,1.48,3.76,0,1.74-.83,3.74-2.48,6-1.65,2.26-3.93,3.99-6.84,5.19.08,2.47.64,4.38,1.68,5.73.26.23.44.35.54.35.13,0,.25-.05.35-.16l.08-.08c.47-.57.81-1.15,1.01-1.73.21-.59.47-1.07.78-1.44.31-.38.85-.56,1.6-.56.6,0,1.05.14,1.36.41s.53.59.66.94c.13.35.2.66.2.92,0,.13-.11.52-.31,1.17-.21.65-.54,1.36-.99,2.15-.46.78-1.07,1.46-1.83,2.05-.77.59-1.72.88-2.86.88M118.77,30.65c.76-.62,1.66-1.57,2.71-2.83,1.05-1.26,1.58-2.32,1.58-3.18,0-.24-.06-.44-.19-.62-.7.31-1.46,1.16-2.28,2.53-.82,1.38-1.42,2.74-1.81,4.09"/><path class="cls-3" d="M143.18,50.62c-.49,0-.99-.18-1.48-.55-.5-.36-1.08-1.18-1.75-2.46-.68-1.27-1.53-3.24-2.55-5.89-1.03-2.65-2.32-6.22-3.88-10.72-.13,3.12-.2,6.77-.2,10.96,0,.96.01,1.52.04,1.68v.16c0,1.35-.23,2.27-.7,2.77-.47.49-.97.74-1.52.74-1.51,0-2.27-1.17-2.3-3.51,0-5.62.06-10.02.17-13.22.12-3.2.29-5.6.53-7.21.23-1.61.54-2.67.92-3.18.38-.51.81-.76,1.31-.76.83,0,1.42.48,1.75,1.44.49.21.82.47.97.78.08.05.12.1.14.14.01.04.03.07.06.1.03.03.04.05.04.06,0,.01.01.02.04.02.47.52,1.35,2.65,2.65,6.4.91,2.68,2.38,6.69,4.41,12.05.31-5.12.58-9.25.8-12.4.22-3.15.45-5.54.7-7.19.25-1.65.57-2.76.96-3.33.39-.57.9-.86,1.52-.86.68,0,1.22.27,1.64.8.42.53.62,1.11.62,1.73-1.4,18.9-2.27,28.89-2.61,29.99-.52.99-1.27,1.48-2.26,1.48"/><path class="cls-1" d="M43.87,74.59c-.29,0-.6-.11-.94-.34-.34-.23-.51-.59-.51-1.1,0-.3.08-.55.23-.73.15-.19.31-.35.48-.48-.07-.4-.1-1.22-.1-2.45,0-1.82.05-4.05.16-6.69.11-2.64.24-4.69.39-6.15-1.18.47-1.81.72-1.9.75-.08.02-.19.04-.32.05-.13,0-.23.02-.3.05-.08.02-.19.04-.34.04-.24,0-.45-.09-.66-.26-.2-.18-.3-.4-.3-.67,0-.29.1-.54.3-.76l.02-.02c.35-.76,1.26-1.42,2.73-1.97,1.47-.56,2.91-.83,4.35-.83,1.53,0,2.59.47,3.19,1.42.37.61.56,1.27.56,2s-.18,1.39-.54,2.08c-.36.7-.98,1.74-1.86,3.12l-.93,1.47c.39-.05.77-.08,1.14-.08.84,0,1.48.17,1.92.51.44.34.73.72.88,1.15.15.43.23.79.23,1.07,0,.72-.35,1.59-1.04,2.59-.69,1-1.51,1.98-2.45,2.92-.94.94-1.84,1.73-2.68,2.38-.84.64-1.42.96-1.72.96M45.76,60.48c.52-.83.93-1.48,1.23-1.97.29-.49.51-.86.64-1.11.14-.25.22-.44.27-.56.04-.12.07-.21.08-.29,0-.08.01-.14.01-.19,0-.03,0-.08-.01-.13,0-.05-.04-.12-.09-.2-.13-.07-.35-.1-.66-.1-.62,0-1.19.05-1.69.15.1.39.17,1.47.2,3.24l.02,1.16ZM45.96,69.36c1.48-1.5,2.41-2.64,2.78-3.41l-2.86.23.07,3.18Z"/><path class="cls-1" d="M61.65,73.86c-.69,0-1.11-.31-1.26-.94-.15-.62-.24-1.61-.28-2.96-.02-1.11-.1-2.5-.25-4.17-.29.07-1,.11-2.15.13l-1.09.03-.1.58c-.1.69-.22,1.36-.35,2-.3,1.47-.74,2.2-1.31,2.2-.17,0-.31-.05-.43-.16-.12-.11-.21-.22-.28-.34-.07-.12-.1-.19-.1-.2-.12-.25-.18-.66-.18-1.21,0-.67.07-1.57.2-2.68l.05-.35c-.42-.08-.73-.19-.94-.3-.13-.05-.23-.11-.28-.18-.05-.07-.11-.13-.18-.18-.14-.12-.2-.25-.2-.4,0-.19.08-.33.23-.43.07-.05.13-.1.19-.17.06-.06.13-.11.21-.16.22-.15.66-.29,1.31-.4.35-1.94.86-3.71,1.52-5.31.84-2.06,1.76-3.08,2.76-3.08.81,0,1.48.48,2.01,1.44.53.96.95,2.15,1.26,3.57.31,1.42.54,2.87.69,4.36.15,1.49.25,2.81.29,3.96.04,1.15.06,1.88.06,2.2,0,.89-.02,1.52-.08,1.87-.05.35-.19.64-.43.86l-.02.02s-.04.06-.13.12c-.08.07-.19.14-.33.2-.13.07-.28.1-.43.1M57.21,63.29l2.33-.15c-.03-.32-.09-.76-.18-1.32-.09-.56-.18-1.1-.28-1.64-.1-.54-.19-.95-.28-1.21-.64,1.25-1.17,2.69-1.59,4.32M58.87,59.22s0-.07-.02-.07l.02.07Z"/><path class="cls-1" d="M73.64,74.28c-.3,0-.57-.09-.81-.25-.42-.3-.63-.83-.63-1.59,0-1.72.21-4.65.63-8.8-1.52.19-3.04.35-4.57.5.2,1.89.34,3.13.43,3.72.08.59.13,1.14.13,1.64,0,.62-.22,1.05-.66,1.29-.25.15-.5.23-.73.23-.73,0-1.21-.47-1.45-1.42-.24-.94-.47-2.8-.67-5.56-.03-.02-.07-.03-.1-.04-.03,0-.07-.02-.1-.04-.03-.02-.07-.03-.11-.05-.04-.02-.11-.05-.2-.09-.09-.04-.19-.12-.3-.23-.11-.11-.16-.26-.16-.47,0-.24.06-.42.19-.56.13-.14.35-.29.67-.46l-.05-3.41c0-1.75.07-3.04.22-3.85.14-.82.5-1.23,1.07-1.23.54,0,.88.33,1.02,1,.14.67.27,1.92.37,3.75.05.83.12,1.81.23,2.96,1.06-.2,2.78-.44,5.16-.71l.23-1.44c.56-3.2,1.05-4.99,1.47-5.36.2-.37.48-.56.83-.56.61,0,.91.63.91,1.9,0,1.43-.19,3.45-.56,6.04v.13c.09.19.13.38.13.58,0,.27-.1.55-.3.83-.32,3.2-.52,5.64-.59,7.3-.08,1.67-.2,2.79-.37,3.36s-.6.86-1.29.86"/><path class="cls-1" d="M86.04,73.95c-.69,0-1.11-.31-1.26-.94-.15-.62-.24-1.61-.28-2.96-.02-1.11-.1-2.5-.25-4.17-.29.07-1,.11-2.15.13l-1.09.03-.1.58c-.1.69-.22,1.36-.35,2-.3,1.47-.74,2.2-1.31,2.2-.17,0-.31-.05-.43-.16-.12-.11-.21-.22-.28-.34-.07-.12-.1-.19-.1-.2-.12-.25-.18-.66-.18-1.21,0-.67.07-1.57.2-2.68l.05-.35c-.42-.08-.73-.19-.94-.3-.13-.05-.23-.11-.28-.18-.05-.07-.11-.13-.18-.18-.14-.12-.2-.25-.2-.4,0-.19.08-.33.23-.43.07-.05.13-.1.19-.17.06-.06.13-.11.21-.16.22-.15.66-.29,1.31-.4.35-1.94.86-3.71,1.52-5.31.84-2.06,1.76-3.08,2.76-3.08.81,0,1.48.48,2.01,1.44.53.96.95,2.15,1.26,3.57.31,1.42.54,2.87.69,4.36.15,1.49.25,2.81.29,3.96.04,1.15.06,1.88.06,2.2,0,.89-.02,1.52-.08,1.87-.05.35-.19.64-.43.86l-.02.02s-.04.06-.13.12c-.08.07-.19.14-.33.2-.13.07-.28.1-.43.1M81.59,63.38l2.33-.15c-.03-.32-.09-.76-.18-1.32-.09-.56-.18-1.1-.28-1.64-.1-.54-.19-.95-.28-1.21-.64,1.25-1.17,2.69-1.59,4.32M83.26,59.31s0-.07-.02-.07l.02.07Z"/><path class="cls-1" d="M99.9,73.87c-.27,0-.81-.18-1.62-.54-.81-.36-1.71-.94-2.72-1.74-1-.8-1.98-1.85-2.92-3.15.05.89.1,1.59.15,2.09.05.5.08.91.08,1.25,0,1.23-.46,1.84-1.39,1.84-.62,0-1.05-.39-1.29-1.16-.35-1.01-.53-3.09-.53-6.24s.17-5.92.5-8.37l-.25.25.05-.02-.08.05c-.34.39-.62.58-.86.58-.09.05-.17.08-.25.08-.22,0-.37-.13-.46-.38-.05-.05-.07-.18-.07-.4,0-.61.24-1.15.71-1.62,1.05-1.1,2.59-1.93,4.65-2.5.37-.1.69-.15.96-.15.69,0,1.26.17,1.72.51.46.34.8.76,1.04,1.25.24.5.35,1.02.35,1.55,0,.91-.23,1.86-.7,2.84-.46.98-1,1.92-1.62,2.81-.62.88-1.17,1.61-1.65,2.19.15.17.34.45.58.83,1.1,1.77,2.55,3.28,4.37,4.52l1.11.56c.49.22.86.43,1.12.64.26.21.39.59.39,1.12,0,.37-.15.68-.44.94-.29.25-.61.38-.95.38M92.75,61.28c.74-1.06,1.25-1.93,1.52-2.6.35-.83.53-1.37.53-1.64v-.23s-.02-.04-.02-.08,0-.07-.03-.11c-.02-.04-.02-.08-.02-.1s0-.05-.02-.06c-.02-.02-.02-.03-.02-.04,0,0-.02-.03-.05-.06,0-.1-.19-.15-.58-.15s-.76.04-1.06.13l.02.73c0,.62-.08,2.03-.25,4.22"/><path class="cls-1" d="M106.93,72.78c-.69,0-1.11-.31-1.26-.94-.15-.62-.24-1.61-.28-2.96-.02-1.11-.1-2.5-.25-4.17-.29.07-1,.11-2.15.13l-1.09.03-.1.58c-.1.69-.22,1.36-.35,2-.3,1.47-.74,2.2-1.32,2.2-.17,0-.31-.05-.43-.16-.12-.11-.21-.22-.28-.34-.07-.12-.1-.19-.1-.2-.12-.25-.18-.66-.18-1.21,0-.67.07-1.57.2-2.68l.05-.35c-.42-.08-.73-.19-.93-.3-.14-.05-.23-.11-.28-.18-.05-.07-.11-.13-.18-.18-.13-.12-.2-.25-.2-.4,0-.19.07-.33.23-.43.07-.05.13-.1.19-.17.06-.06.13-.11.22-.16.22-.15.66-.29,1.31-.4.35-1.94.86-3.71,1.52-5.31.84-2.06,1.76-3.08,2.76-3.08.81,0,1.48.48,2.01,1.44.53.96.95,2.15,1.26,3.57.31,1.42.54,2.87.69,4.36.15,1.49.25,2.81.29,3.96.04,1.15.06,1.88.06,2.2,0,.89-.02,1.52-.07,1.87-.05.35-.19.64-.43.86l-.03.02s-.04.06-.13.12c-.08.07-.19.14-.33.2-.13.07-.28.1-.43.1M102.48,62.21l2.33-.15c-.03-.32-.09-.76-.18-1.32-.09-.56-.18-1.1-.28-1.64-.1-.54-.19-.95-.28-1.21-.64,1.25-1.17,2.69-1.59,4.32M104.15,58.14s0-.07-.02-.07l.02.07Z"/><path class="cls-1" d="M116.23,72.38c-1.01,0-1.52-.77-1.52-2.3,0-1.87.05-4.22.14-7.04.09-2.82.37-5.2.82-7.12l-3.03.03c-.96,0-1.85-.03-2.68-.09-.83-.06-1.49-.17-2-.34-.51-.17-.76-.43-.76-.78,0-.15.06-.3.19-.46.12-.15.43-.29.91-.43.48-.13,1.23-.26,2.25-.37,1.02-.11,2.41-.19,4.16-.25,1.75-.06,3.98-.09,6.67-.09.37,0,.65.08.85.25.19.17.33.36.42.57.08.21.13.39.13.54,0,.32-.11.61-.34.87-.23.26-.51.41-.85.44l-3.26.05c0,.98-.08,2.04-.23,3.18-.24,1.87-.4,4.66-.48,8.37,0,1.25.02,2.08.05,2.5l.02.68-.02.56c-.05.35-.22.64-.51.87-.29.23-.6.34-.93.34"/></g></svg>